<svg xmlns="http://www.w3.org/2000/svg" xmlns:xlink="http://www.w3.org/1999/xlink" width="500" zoomAndPan="magnify" viewBox="0 0 375 119.999999" height="160" preserveAspectRatio="xMidYMid meet" version="1.0"><defs><g/><clipPath id="59374b7bbc"><path d="M 15.539062 2.792969 L 167.390625 2.792969 L 167.390625 116.3125 L 15.539062 116.3125 Z M 15.539062 2.792969 " clip-rule="nonzero"/></clipPath></defs><g clip-path="url(#59374b7bbc)"><path fill="#ffffff" d="M 15.539062 2.792969 L 167.191406 2.792969 L 167.191406 116.3125 L 15.539062 116.3125 Z M 15.539062 2.792969 " fill-opacity="1" fill-rule="nonzero"/></g><g fill="#ffffff" fill-opacity="1"><g transform="translate(167.390837, 98.968537)"><g><path d="M 22.0625 -74.96875 C 28.207031 -74.96875 32.648438 -73.539062 35.390625 -70.6875 C 38.140625 -67.832031 39.515625 -63.515625 39.515625 -57.734375 L 39.515625 -55.046875 C 39.515625 -51.191406 38.90625 -48.015625 37.6875 -45.515625 C 36.476562 -43.015625 34.554688 -41.160156 31.921875 -39.953125 C 35.128906 -38.734375 37.394531 -36.75 38.71875 -34 C 40.039062 -31.257812 40.703125 -27.890625 40.703125 -23.890625 L 40.703125 -17.78125 C 40.703125 -12 39.203125 -7.585938 36.203125 -4.546875 C 33.203125 -1.515625 28.738281 0 22.8125 0 L 4.28125 0 L 4.28125 -74.96875 Z M 16.0625 -33.734375 L 16.0625 -10.703125 L 22.8125 -10.703125 C 24.8125 -10.703125 26.328125 -11.238281 27.359375 -12.3125 C 28.398438 -13.382812 28.921875 -15.3125 28.921875 -18.09375 L 28.921875 -24.640625 C 28.921875 -28.140625 28.332031 -30.53125 27.15625 -31.8125 C 25.976562 -33.09375 24.03125 -33.734375 21.3125 -33.734375 Z M 16.0625 -64.265625 L 16.0625 -44.453125 L 20.671875 -44.453125 C 22.890625 -44.453125 24.617188 -45.019531 25.859375 -46.15625 C 27.109375 -47.300781 27.734375 -49.375 27.734375 -52.375 L 27.734375 -56.546875 C 27.734375 -59.265625 27.25 -61.226562 26.28125 -62.4375 C 25.320312 -63.65625 23.8125 -64.265625 21.75 -64.265625 Z M 16.0625 -64.265625 "/></g></g></g><g fill="#ffffff" fill-opacity="1"><g transform="translate(205.524201, 98.968537)"><g><path d="M 42.421875 0 L 30.53125 0 L 28.484375 -13.609375 L 14.03125 -13.609375 L 12 0 L 1.171875 0 L 13.171875 -74.96875 L 30.421875 -74.96875 Z M 15.53125 -23.78125 L 26.890625 -23.78125 L 21.203125 -61.6875 Z M 15.53125 -23.78125 "/></g></g></g><g fill="#ffffff" fill-opacity="1"><g transform="translate(243.764679, 98.968537)"><g><path d="M 2.78125 -56.984375 C 2.78125 -63.054688 4.222656 -67.710938 7.109375 -70.953125 C 10.003906 -74.203125 14.347656 -75.828125 20.140625 -75.828125 C 25.921875 -75.828125 30.253906 -74.203125 33.140625 -70.953125 C 36.035156 -67.710938 37.484375 -63.054688 37.484375 -56.984375 L 37.484375 -54.625 L 26.34375 -54.625 L 26.34375 -57.734375 C 26.34375 -60.441406 25.828125 -62.347656 24.796875 -63.453125 C 23.765625 -64.566406 22.316406 -65.125 20.453125 -65.125 C 18.597656 -65.125 17.148438 -64.566406 16.109375 -63.453125 C 15.078125 -62.347656 14.5625 -60.441406 14.5625 -57.734375 C 14.5625 -55.160156 15.132812 -52.890625 16.28125 -50.921875 C 17.425781 -48.960938 18.851562 -47.109375 20.5625 -45.359375 C 22.28125 -43.609375 24.117188 -41.859375 26.078125 -40.109375 C 28.046875 -38.359375 29.882812 -36.445312 31.59375 -34.375 C 33.3125 -32.3125 34.738281 -29.957031 35.875 -27.3125 C 37.019531 -24.664062 37.59375 -21.5625 37.59375 -18 C 37.59375 -11.925781 36.109375 -7.265625 33.140625 -4.015625 C 30.179688 -0.765625 25.8125 0.859375 20.03125 0.859375 C 14.25 0.859375 9.875 -0.765625 6.90625 -4.015625 C 3.945312 -7.265625 2.46875 -11.925781 2.46875 -18 L 2.46875 -22.59375 L 13.609375 -22.59375 L 13.609375 -17.25 C 13.609375 -14.53125 14.160156 -12.632812 15.265625 -11.5625 C 16.367188 -10.5 17.847656 -9.96875 19.703125 -9.96875 C 21.566406 -9.96875 23.050781 -10.5 24.15625 -11.5625 C 25.257812 -12.632812 25.8125 -14.53125 25.8125 -17.25 C 25.8125 -19.8125 25.238281 -22.070312 24.09375 -24.03125 C 22.957031 -26 21.53125 -27.859375 19.8125 -29.609375 C 18.101562 -31.359375 16.265625 -33.109375 14.296875 -34.859375 C 12.335938 -36.609375 10.5 -38.519531 8.78125 -40.59375 C 7.070312 -42.664062 5.644531 -45.019531 4.5 -47.65625 C 3.351562 -50.300781 2.78125 -53.410156 2.78125 -56.984375 Z M 2.78125 -56.984375 "/></g></g></g><g fill="#ffffff" fill-opacity="1"><g transform="translate(278.470311, 98.968537)"><g><path d="M 16.0625 -43.375 L 32.234375 -43.375 L 32.234375 -32.671875 L 16.0625 -32.671875 L 16.0625 -10.703125 L 36.421875 -10.703125 L 36.421875 0 L 4.28125 0 L 4.28125 -74.96875 L 36.421875 -74.96875 L 36.421875 -64.265625 L 16.0625 -64.265625 Z M 16.0625 -43.375 "/></g></g></g><g fill="#fb923d" fill-opacity="1"><g transform="translate(37.0836, 98.976999)"><g><path d="M 29.234375 -21.75 L 37.28125 -74.96875 L 53.65625 -74.96875 L 53.65625 0 L 42.515625 0 L 42.515625 -53.765625 L 34.375 0 L 23.25 0 L 14.453125 -53.015625 L 14.453125 0 L 4.171875 0 L 4.171875 -74.96875 L 20.5625 -74.96875 Z M 29.234375 -21.75 "/></g></g></g><g fill="#fb923d" fill-opacity="1"><g transform="translate(89.673754, 98.976999)"><g><path d="M 15.53125 -74.96875 L 15.53125 -17.140625 C 15.53125 -14.421875 16.082031 -12.523438 17.1875 -11.453125 C 18.289062 -10.390625 19.773438 -9.859375 21.640625 -9.859375 C 23.492188 -9.859375 24.972656 -10.390625 26.078125 -11.453125 C 27.179688 -12.523438 27.734375 -14.421875 27.734375 -17.140625 L 27.734375 -74.96875 L 38.875 -74.96875 L 38.875 -17.890625 C 38.875 -11.816406 37.390625 -7.15625 34.421875 -3.90625 C 31.460938 -0.65625 27.09375 0.96875 21.3125 0.96875 C 15.53125 0.96875 11.15625 -0.65625 8.1875 -3.90625 C 5.226562 -7.15625 3.75 -11.816406 3.75 -17.890625 L 3.75 -74.96875 Z M 15.53125 -74.96875 "/></g></g></g><g fill="#fb923d" fill-opacity="1"><g transform="translate(126.947283, 98.976999)"><g><path d="M 2.78125 -56.984375 C 2.78125 -63.054688 4.222656 -67.710938 7.109375 -70.953125 C 10.003906 -74.203125 14.347656 -75.828125 20.140625 -75.828125 C 25.921875 -75.828125 30.253906 -74.203125 33.140625 -70.953125 C 36.035156 -67.710938 37.484375 -63.054688 37.484375 -56.984375 L 37.484375 -54.625 L 26.34375 -54.625 L 26.34375 -57.734375 C 26.34375 -60.441406 25.828125 -62.347656 24.796875 -63.453125 C 23.765625 -64.566406 22.316406 -65.125 20.453125 -65.125 C 18.597656 -65.125 17.148438 -64.566406 16.109375 -63.453125 C 15.078125 -62.347656 14.5625 -60.441406 14.5625 -57.734375 C 14.5625 -55.160156 15.132812 -52.890625 16.28125 -50.921875 C 17.425781 -48.960938 18.851562 -47.109375 20.5625 -45.359375 C 22.28125 -43.609375 24.117188 -41.859375 26.078125 -40.109375 C 28.046875 -38.359375 29.882812 -36.445312 31.59375 -34.375 C 33.3125 -32.3125 34.738281 -29.957031 35.875 -27.3125 C 37.019531 -24.664062 37.59375 -21.5625 37.59375 -18 C 37.59375 -11.925781 36.109375 -7.265625 33.140625 -4.015625 C 30.179688 -0.765625 25.8125 0.859375 20.03125 0.859375 C 14.25 0.859375 9.875 -0.765625 6.90625 -4.015625 C 3.945312 -7.265625 2.46875 -11.925781 2.46875 -18 L 2.46875 -22.59375 L 13.609375 -22.59375 L 13.609375 -17.25 C 13.609375 -14.53125 14.160156 -12.632812 15.265625 -11.5625 C 16.367188 -10.5 17.847656 -9.96875 19.703125 -9.96875 C 21.566406 -9.96875 23.050781 -10.5 24.15625 -11.5625 C 25.257812 -12.632812 25.8125 -14.53125 25.8125 -17.25 C 25.8125 -19.8125 25.238281 -22.070312 24.09375 -24.03125 C 22.957031 -26 21.53125 -27.859375 19.8125 -29.609375 C 18.101562 -31.359375 16.265625 -33.109375 14.296875 -34.859375 C 12.335938 -36.609375 10.5 -38.519531 8.78125 -40.59375 C 7.070312 -42.664062 5.644531 -45.019531 4.5 -47.65625 C 3.351562 -50.300781 2.78125 -53.410156 2.78125 -56.984375 Z M 2.78125 -56.984375 "/></g></g></g></svg>