<svg xmlns="http://www.w3.org/2000/svg" xmlns:xlink="http://www.w3.org/1999/xlink" width="500" zoomAndPan="magnify" viewBox="0 0 375 374.999991" height="500" preserveAspectRatio="xMidYMid meet" version="1.0"><defs><g/><clipPath id="e81329ecb1"><path d="M 19.472656 11.4375 L 236.753906 11.4375 L 236.753906 364.917969 L 19.472656 364.917969 Z M 19.472656 11.4375 " clip-rule="nonzero"/></clipPath></defs><g clip-path="url(#e81329ecb1)"><path fill="#ffffff" d="M 19.472656 11.4375 L 236.753906 11.4375 L 236.753906 364.515625 L 19.472656 364.515625 Z M 19.472656 11.4375 " fill-opacity="1" fill-rule="nonzero"/></g><g fill="#ffffff" fill-opacity="1"><g transform="translate(236.753895, 310.918351)"><g><path d="M 68.703125 -233.484375 C 87.828125 -233.484375 101.671875 -229.035156 110.234375 -220.140625 C 118.796875 -211.242188 123.078125 -197.789062 123.078125 -179.78125 L 123.078125 -171.4375 C 123.078125 -159.4375 121.1875 -149.539062 117.40625 -141.75 C 113.625 -133.96875 107.617188 -128.1875 99.390625 -124.40625 C 109.398438 -120.632812 116.460938 -114.46875 120.578125 -105.90625 C 124.691406 -97.34375 126.75 -86.832031 126.75 -74.375 L 126.75 -55.375 C 126.75 -37.351562 122.078125 -23.617188 112.734375 -14.171875 C 103.398438 -4.722656 89.503906 0 71.046875 0 L 13.34375 0 L 13.34375 -233.484375 Z M 50.03125 -105.0625 L 50.03125 -33.359375 L 71.046875 -33.359375 C 77.273438 -33.359375 82 -35.023438 85.21875 -38.359375 C 88.445312 -41.691406 90.0625 -47.695312 90.0625 -56.375 L 90.0625 -76.71875 C 90.0625 -87.613281 88.222656 -95.0625 84.546875 -99.0625 C 80.878906 -103.0625 74.820312 -105.0625 66.375 -105.0625 Z M 50.03125 -200.125 L 50.03125 -138.421875 L 64.375 -138.421875 C 71.269531 -138.421875 76.660156 -140.195312 80.546875 -143.75 C 84.441406 -147.3125 86.390625 -153.765625 86.390625 -163.109375 L 86.390625 -176.109375 C 86.390625 -184.554688 84.890625 -190.671875 81.890625 -194.453125 C 78.890625 -198.234375 74.160156 -200.125 67.703125 -200.125 Z M 50.03125 -200.125 "/></g></g></g><g fill="#fb923d" fill-opacity="1"><g transform="translate(48.768839, 311.73988)"><g><path d="M 91.0625 -67.703125 L 116.078125 -233.484375 L 167.109375 -233.484375 L 167.109375 0 L 132.421875 0 L 132.421875 -167.4375 L 107.0625 0 L 72.375 0 L 45.03125 -165.109375 L 45.03125 0 L 13.015625 0 L 13.015625 -233.484375 L 64.046875 -233.484375 Z M 91.0625 -67.703125 "/></g></g></g></svg>